# This file uses centimeters as units for non-parametric coordinates.

mtllib rock024.mtl
g default
v 6329.093750 12.170650 4407.866211
v 6800.902344 33.716957 4394.428711
v 6338.303223 54.426498 4405.880859
v 6800.902344 47.983299 4394.428223
v 6338.546387 47.983299 4289.812988
v 6800.902344 47.983299 4289.812988
v 6338.546387 33.716957 4289.812988
v 6800.902344 33.716957 4289.812988
v 6736.171875 50.479904 4283.274414
v 6736.172363 31.220350 4283.274414
v 6738.390625 -15.648509 4424.361328
v 6735.654785 64.310814 4415.114258
v 6652.948242 50.479904 4283.274414
v 6652.948242 31.220350 4283.274414
v 6652.200684 14.721066 4417.692871
v 6652.054199 60.818352 4416.809082
v 6569.724121 50.479904 4283.274414
v 6569.723633 31.220350 4283.274414
v 6564.256348 5.474144 4412.526855
v 6564.472168 57.164455 4418.044922
v 6486.500000 50.479904 4283.274414
v 6486.500000 31.220350 4283.274414
v 6485.817383 9.895401 4415.954590
v 6485.548828 62.314198 4421.870117
v 6403.276367 50.479904 4283.274414
v 6403.276367 31.220348 4283.274414
v 6402.515137 12.285789 4420.223633
v 6403.370117 64.435448 4421.106934
v 6568.561035 61.945808 4343.749023
v 6486.248535 66.001732 4345.361816
v 6403.511719 59.599430 4343.416992
v 6337.228516 52.572376 4343.041016
v 6333.316406 29.110462 4342.559570
v 6403.274902 27.800299 4342.175293
v 6486.477051 24.927366 4340.823730
v 6569.368164 25.539330 4341.563477
v 6652.798340 24.004429 4342.816406
v 6736.171875 28.010426 4342.120117
v 6808.993164 31.220350 4342.120117
v 6808.993164 50.479904 4342.120117
v 6736.171387 69.085480 4343.332031
v 6652.946289 76.807190 4343.387695
v 6403.276367 40.849785 4459.372070
v 6365.027344 57.917194 4416.904785
v 6340.121094 54.620796 4377.659668
v 6404.329102 67.767036 4382.590332
v 6365.573242 58.789665 4343.790527
v 6361.664062 50.479908 4283.274414
v 6330.455566 40.850128 4283.274414
v 6403.276367 40.850128 4274.868164
v 6361.664062 31.220348 4283.274902
v 6361.664062 28.010422 4342.120605
v 6324.177246 12.928712 4377.994629
v 6403.070801 12.495775 4380.028320
v 6808.993164 31.220348 4375.747070
v 6808.993164 40.850128 4400.966797
v 6819.395996 40.850128 4342.120605
v 6808.993164 50.479908 4375.747070
v 6323.828125 40.807060 4342.700684
v 6777.784180 50.479908 4283.274414
v 6736.172363 40.850128 4274.868164
v 6808.993164 40.850128 4283.274414
v 6777.784180 31.220348 4283.274414
v 6736.213379 26.602095 4376.161133
v 6777.688477 30.997099 4400.967285
v 6777.784180 28.010422 4342.120605
v 6736.172363 40.850513 4455.633789
v 6775.737305 53.483948 4400.739258
v 6735.996094 68.762344 4379.219727
v 6777.784180 53.689835 4342.120605
v 6694.560547 50.479912 4283.274414
v 6652.948242 40.850128 4274.868164
v 6694.560547 31.220348 4283.274414
v 6652.616211 17.421585 4378.784180
v 6694.723633 10.690128 4420.557617
v 6694.432617 23.357712 4343.115723
v 6652.948242 40.850456 4456.090332
v 6694.288086 67.653183 4419.415039
v 6652.165039 71.088890 4380.253906
v 6694.560059 76.510956 4343.727539
v 6611.335938 50.479912 4283.274414
v 6569.724609 40.850128 4274.868164
v 6611.335938 31.220348 4283.274414
v 6567.641602 15.653244 4373.656250
v 6609.029297 2.061657 4413.652344
v 6611.335938 28.010422 4342.120605
v 6557.575684 40.193638 4457.707031
v 6609.233887 57.785156 4409.926270
v 6611.237305 68.795937 4342.239746
v 6566.822754 64.801170 4381.331543
v 6528.112305 50.479908 4283.274414
v 6486.500488 40.850128 4274.868164
v 6528.112305 31.220348 4283.274414
v 6486.115234 4.502033 4368.282227
v 6525.833496 5.023769 4417.011719
v 6528.004395 27.379917 4341.815430
v 6486.500488 40.850471 4458.693848
v 6525.853516 57.834808 4420.770508
v 6485.666992 67.932877 4383.704590
v 6527.469238 63.699898 4344.552734
v 6444.888184 50.479912 4283.274414
v 6444.888184 31.220348 4283.274414
v 6444.486328 13.061480 4419.135254
v 6444.888184 27.995722 4342.120605
v 6444.744629 68.145187 4422.290039
v 6444.879883 65.938858 4345.036133
v 6486.500488 53.689835 4308.494141
v 6569.724121 53.689835 4308.494141
v 6403.276367 53.689835 4308.494141
v 6330.455566 50.479908 4308.494141
v 6330.455078 31.220348 4308.494141
v 6403.276367 28.010422 4308.494141
v 6486.500000 28.010422 4308.494141
v 6569.724121 28.010422 4308.494141
v 6652.948242 28.010422 4308.494141
v 6736.172852 28.010422 4308.494141
v 6808.993164 31.220348 4308.494141
v 6808.993164 50.479908 4308.494141
v 6736.172363 53.689835 4308.494141
v 6652.948242 53.689835 4308.494141
v 6360.649414 15.673573 4417.041016
v 6320.970215 39.615238 4418.919434
v 6354.163574 40.849918 4458.518066
v 6367.997070 61.747761 4380.490234
v 6361.664551 40.850128 4274.868164
v 6361.595215 24.404402 4376.803711
v 6819.395996 40.850128 4375.747070
v 6322.984863 38.979618 4379.875977
v 6777.784180 40.850128 4274.868164
v 6777.784180 28.010422 4375.747070
v 6777.412109 40.850143 4410.125977
v 6777.552734 54.179825 4375.668457
v 6694.560547 40.850128 4274.868164
v 6694.441406 18.334339 4379.768555
v 6694.560059 40.850471 4458.576172
v 6694.362305 74.573547 4380.996094
v 6611.336426 40.850128 4274.868164
v 6611.372070 20.388071 4374.187988
v 6611.335938 40.850254 4424.471191
v 6609.704102 66.879768 4378.729492
v 6528.112305 40.850128 4274.868164
v 6526.306641 15.661036 4370.561523
v 6528.112305 40.850407 4458.798340
v 6526.194336 65.430283 4382.980469
v 6444.888672 40.850128 4274.868164
v 6444.671387 12.294830 4377.693848
v 6444.888184 40.850201 4459.342285
v 6444.915527 71.170685 4383.715332
v 6528.112305 53.689835 4308.494141
v 6444.888184 53.689835 4308.494141
v 6361.670410 53.688343 4308.498535
v 6320.052246 40.850128 4308.494141
v 6361.664551 28.010422 4308.494629
v 6444.888184 28.010422 4308.494141
v 6528.112305 28.010422 4308.494141
v 6611.335938 28.010422 4308.494141
v 6694.560547 28.010422 4308.494141
v 6777.784180 28.010422 4308.494141
v 6819.395996 40.850128 4308.494141
v 6777.784180 53.689835 4308.494141
v 6694.560059 54.030991 4308.560059
v 6611.335938 53.689835 4308.494141
vt 0.375000 0.000000
vt 0.395833 0.000000
vt 0.395833 0.125000
vt 0.395833 0.234375
vt 0.375000 0.312500
vt 0.416667 0.234375
vt 0.416667 0.375000
vt 0.395833 0.312500
vt 0.375000 0.375000
vt 0.375000 0.625000
vt 0.395833 0.625000
vt 0.375000 0.750000
vt 0.375000 0.875000
vt 0.375000 0.937500
vt 0.395833 1.000000
vt 0.395833 0.937500
vt 0.375000 1.000000
vt 0.625000 0.000000
vt 0.687500 0.000000
vt 0.750000 0.000000
vt 0.750000 0.250000
vt 0.687500 0.125000
vt 0.687500 0.250000
vt 0.250000 0.000000
vt 0.312500 0.000000
vt 0.364583 0.125000
vt 0.375000 0.250000
vt 0.312500 0.250000
vt 0.312500 0.125000
vt 0.250000 0.250000
vt 0.625000 0.500000
vt 0.625000 0.625000
vt 0.625000 0.750000
vt 0.604167 0.625000
vt 0.583333 1.000000
vt 0.604167 1.000000
vt 0.583333 0.875000
vt 0.625000 0.875000
vt 0.625000 0.937500
vt 0.604167 0.937500
vt 0.625000 1.000000
vt 0.583333 0.000000
vt 0.604167 0.000000
vt 0.635417 0.125000
vt 0.604167 0.125000
vt 0.625000 0.250000
vt 0.604167 0.234375
vt 0.625000 0.312500
vt 0.604167 0.312500
vt 0.625000 0.375000
vt 0.583333 0.625000
vt 0.583333 0.734375
vt 0.562500 0.625000
vt 0.541667 1.000000
vt 0.562500 1.000000
vt 0.541667 0.875000
vt 0.583333 0.937500
vt 0.562500 0.937500
vt 0.541667 0.000000
vt 0.562500 0.000000
vt 0.583333 0.125000
vt 0.562500 0.125000
vt 0.583333 0.234375
vt 0.562500 0.234375
vt 0.583333 0.312500
vt 0.562500 0.312500
vt 0.583333 0.375000
vt 0.541667 0.625000
vt 0.541667 0.734375
vt 0.520833 0.625000
vt 0.500000 1.000000
vt 0.520833 1.000000
vt 0.500000 0.875000
vt 0.541667 0.937500
vt 0.520833 0.937500
vt 0.500000 0.000000
vt 0.520833 0.000000
vt 0.541667 0.125000
vt 0.520833 0.125000
vt 0.541667 0.234375
vt 0.541667 0.375000
vt 0.520833 0.234375
vt 0.541667 0.312500
vt 0.520833 0.312500
vt 0.500000 0.625000
vt 0.500000 0.734375
vt 0.479167 0.625000
vt 0.458333 1.000000
vt 0.479167 1.000000
vt 0.458333 0.875000
vt 0.500000 0.937500
vt 0.479167 0.937500
vt 0.458333 0.000000
vt 0.479167 0.000000
vt 0.500000 0.125000
vt 0.479167 0.125000
vt 0.500000 0.234375
vt 0.479167 0.234375
vt 0.500000 0.312500
vt 0.479167 0.312500
vt 0.458333 0.625000
vt 0.458333 0.734375
vt 0.416667 0.625000
vt 0.437500 0.625000
vt 0.416667 1.000000
vt 0.416667 0.937500
vt 0.437500 1.000000
vt 0.416667 0.875000
vt 0.458333 0.937500
vt 0.437500 0.937500
vt 0.416667 0.125000
vt 0.416667 0.000000
vt 0.437500 0.000000
vt 0.458333 0.125000
vt 0.437500 0.125000
vt 0.458333 0.234375
vt 0.416667 0.312500
vt 0.437500 0.234375
vt 0.458333 0.312500
vt 0.437500 0.312500
vt 0.458333 0.375000
vt 0.458333 0.515625
vt 0.479167 0.375000
vt 0.479167 0.515625
vt 0.479167 0.437500
vt 0.416667 0.515625
vt 0.437500 0.375000
vt 0.458333 0.437500
vt 0.437500 0.515625
vt 0.437500 0.437500
vt 0.395833 0.375000
vt 0.375000 0.437500
vt 0.416667 0.437500
vt 0.395833 0.515625
vt 0.395833 0.437500
vt 0.375000 0.500000
vt 0.125000 0.000000
vt 0.187500 0.000000
vt 0.250000 0.125000
vt 0.187500 0.250000
vt 0.125000 0.125000
vt 0.187500 0.125000
vt 0.125000 0.250000
vt 0.395833 0.734375
vt 0.416667 0.734375
vt 0.395833 0.875000
vt 0.375000 0.812500
vt 0.395833 0.812500
vt 0.437500 0.875000
vt 0.416667 0.812500
vt 0.437500 0.734375
vt 0.437500 0.812500
vt 0.479167 0.875000
vt 0.458333 0.812500
vt 0.479167 0.734375
vt 0.479167 0.812500
vt 0.520833 0.875000
vt 0.500000 0.812500
vt 0.520833 0.734375
vt 0.520833 0.812500
vt 0.562500 0.875000
vt 0.541667 0.812500
vt 0.562500 0.734375
vt 0.562500 0.812500
vt 0.604167 0.875000
vt 0.625000 0.812500
vt 0.583333 0.812500
vt 0.604167 0.734375
vt 0.604167 0.812500
vt 0.750000 0.125000
vt 0.812500 0.250000
vt 0.812500 0.000000
vt 0.875000 0.000000
vt 0.875000 0.125000
vt 0.812500 0.125000
vt 0.875000 0.250000
vt 0.583333 0.515625
vt 0.604167 0.375000
vt 0.625000 0.437500
vt 0.604167 0.515625
vt 0.604167 0.437500
vt 0.541667 0.515625
vt 0.562500 0.375000
vt 0.583333 0.437500
vt 0.562500 0.515625
vt 0.562500 0.437500
vt 0.500000 0.515625
vt 0.500000 0.437500
vt 0.500000 0.375000
vt 0.520833 0.375000
vt 0.541667 0.437500
vt 0.520833 0.515625
vt 0.520833 0.437500
vn -0.829752 -0.523695 0.193017
vn -0.279332 -0.911282 0.302555
vn -0.293838 0.025572 0.955513
vn -0.845306 0.033468 0.533233
vn 0.145390 -0.966383 0.212051
vn 0.060912 0.028407 0.997739
vn -0.005203 0.783008 0.621989
vn -0.252991 0.756567 0.602994
vn -0.707862 0.599036 0.374283
vn -0.179922 0.894677 -0.408879
vn -0.717723 0.612445 -0.331338
vn -0.095932 0.932129 -0.349188
vn -0.166937 0.807877 -0.565214
vn -0.116289 0.827706 -0.548981
vn -0.472396 0.771137 -0.426837
vn -0.262689 0.903138 -0.339613
vn -0.059431 0.928070 -0.367634
vn -0.106383 -0.000012 -0.994325
vn -0.664701 -0.000005 -0.747110
vn -0.000000 0.934212 -0.356718
vn -0.000000 -0.000007 -1.000000
vn -0.000000 -0.934213 -0.356717
vn -0.059428 -0.928072 -0.367629
vn -0.262685 -0.903139 -0.339613
vn -0.287124 -0.932915 -0.217324
vn 0.034916 -0.996535 -0.075496
vn 0.006604 -0.746647 -0.665188
vn -0.559746 -0.677928 -0.476548
vn -0.000554 -1.000000 -0.000685
vn 0.092241 -0.747052 -0.658335
vn 0.262681 -0.903140 0.339614
vn 0.310864 -0.947440 0.075643
vn 0.988223 -0.000002 0.153019
vn 0.664699 0.000007 0.747111
vn 0.294841 -0.955546 0.000000
vn 1.000000 -0.000001 0.000000
vn 0.294841 0.955546 0.000000
vn 0.310864 0.947440 0.075644
vn 0.262683 0.903141 0.339609
vn -0.992914 0.006693 -0.118649
vn -0.970724 0.006591 -0.240107
vn -0.000000 0.934212 -0.356719
vn 0.059428 0.928071 -0.367632
vn 0.106384 0.000003 -0.994325
vn 0.000000 0.000000 -1.000000
vn 0.262682 0.903141 -0.339610
vn 0.664698 -0.000000 -0.747112
vn 0.262682 -0.903141 -0.339610
vn 0.059427 -0.928069 -0.367636
vn 0.000000 -0.934212 -0.356718
vn 0.682569 -0.686677 0.250148
vn 0.428913 -0.788822 -0.440221
vn 0.177724 -0.969266 -0.170111
vn 0.634775 -0.743446 0.210593
vn 0.109904 -0.984593 -0.136005
vn 0.044037 -0.999030 -0.000000
vn 0.392088 0.739014 0.547837
vn 0.413522 0.021661 0.910236
vn 0.738020 0.017458 0.674553
vn 0.699126 0.605500 0.380254
vn 0.365292 0.812244 -0.454777
vn 0.451329 0.887711 -0.090948
vn 0.556956 0.827967 -0.065349
vn 0.303506 0.932736 -0.194649
vn -0.000000 0.934212 -0.356717
vn -0.000000 0.934211 -0.356720
vn -0.000000 -0.000002 -1.000000
vn -0.000000 0.000000 -1.000000
vn 0.000000 -0.934213 -0.356717
vn 0.000000 -0.934212 -0.356717
vn -0.386825 -0.834534 0.392325
vn -0.228696 -0.707828 -0.668339
vn 0.287584 -0.712936 -0.639545
vn 0.264059 -0.895224 0.358952
vn -0.102299 -0.896182 -0.431732
vn 0.109480 -0.901820 -0.418013
vn -0.145699 0.749509 0.645762
vn -0.195314 0.035100 0.980112
vn 0.072695 0.024235 0.997060
vn 0.003828 0.780717 0.624873
vn -0.154804 0.822871 -0.546735
vn -0.135237 0.990736 0.012424
vn 0.088286 0.995969 -0.015837
vn 0.147241 0.813363 -0.562814
vn -0.000000 0.934212 -0.356719
vn 0.000000 0.934212 -0.356718
vn -0.000000 -0.000002 -1.000000
vn 0.000000 0.000000 -1.000000
vn 0.000000 -0.934212 -0.356718
vn 0.000000 -0.934212 -0.356720
vn 0.189797 -0.866551 0.461591
vn 0.030385 -0.825032 -0.564269
vn 0.120732 -0.768768 -0.628028
vn -0.130715 -0.849543 0.511068
vn 0.060623 -0.817276 -0.573049
vn 0.104201 -0.898810 -0.425774
vn 0.151368 0.734091 0.661966
vn 0.269345 0.029275 0.962599
vn -0.018749 0.055878 0.998262
vn 0.002692 0.725514 0.688202
vn -0.210124 0.781955 -0.586852
vn -0.138262 0.973716 -0.180999
vn -0.075295 0.839220 -0.538554
vn 0.003874 0.929131 -0.369730
vn -0.000000 0.934212 -0.356718
vn 0.000000 0.934212 -0.356718
vn 0.000000 0.000002 -1.000000
vn 0.000000 0.000000 -1.000000
vn 0.000000 -0.934212 -0.356718
vn 0.000000 -0.934212 -0.356718
vn -0.146443 -0.952813 0.265899
vn -0.117376 -0.821240 -0.558380
vn -0.073361 -0.740659 -0.667864
vn -0.072908 -0.847705 0.525435
vn -0.041978 -0.903197 -0.427168
vn -0.068340 -0.833259 -0.548643
vn 0.010100 0.791139 0.611553
vn -0.136297 0.070496 0.988157
vn 0.001669 0.084575 0.996416
vn 0.032799 0.809670 0.585968
vn 0.179301 0.808545 -0.560452
vn 0.113374 0.935789 -0.333835
vn 0.039779 0.894727 -0.444838
vn 0.014369 0.840689 -0.541327
vn 0.000000 0.934211 -0.356720
vn -0.000000 0.000000 -1.000000
vn 0.000000 -0.934212 -0.356719
vn -0.246274 -0.792507 -0.557926
vn -0.161385 -0.951266 0.262769
vn -0.152294 -0.969940 -0.189799
vn 0.035073 0.022209 0.999138
vn 0.003703 0.788414 0.615134
vn -0.004879 0.969444 -0.245264
vn -0.011258 0.805898 -0.591948
vn 0.128086 0.963867 -0.233569
vn 0.009403 0.997771 -0.066062
vn -0.052335 0.991532 -0.118852
vn -0.128066 0.968638 -0.212933
vn -0.008765 0.929997 -0.367463
vn -0.043874 0.997464 -0.056037
vn -0.312192 0.946894 -0.076993
vn -0.310868 -0.947438 -0.075646
vn -0.988223 -0.000001 -0.153023
vn -0.043878 -0.997560 -0.054299
vn -0.000000 -0.998516 -0.054467
vn -0.000000 -0.998516 -0.054467
vn -0.000000 -0.998516 -0.054467
vn 0.000000 -0.998516 -0.054467
vn 0.000000 -0.998516 -0.054467
vn 0.000000 -0.998516 -0.054467
vn 0.000000 -0.998516 -0.054467
vn 0.000000 -0.998516 -0.054467
vn -0.000000 -0.998516 -0.054467
vn 0.043879 -0.997560 -0.054300
vn 0.310863 -0.947440 -0.075645
vn 0.988223 -0.000001 -0.153022
vn 0.310863 0.947440 -0.075645
vn 0.147814 0.921843 -0.358268
vn 0.108200 0.985071 -0.133896
vn -0.086610 0.805229 -0.586605
vn 0.089474 0.806615 -0.584266
vn -0.152586 0.920656 -0.359319
s 1
g rockledge_01
usemtl rockplatform_aSG
f 1/1/1 121/2/2 123/3/3 122/26/4
f 121/2/2 27/112/5 43/111/6 123/3/3
f 123/3/3 43/111/6 28/6/7 44/4/8
f 122/26/4 123/3/3 44/4/8 3/27/9
f 3/27/9 44/4/8 124/8/10 45/5/11
f 44/4/8 28/6/7 46/117/12 124/8/10
f 124/8/10 46/117/12 31/7/13 47/131/14
f 45/5/11 124/8/10 47/131/14 32/9/15
f 5/136/16 48/134/17 125/11/18 49/10/19
f 48/134/17 25/126/20 50/103/21 125/11/18
f 125/11/18 50/103/21 26/145/22 51/144/23
f 49/10/19 125/11/18 51/144/23 7/12/24
f 33/13/25 52/146/26 126/16/27 53/14/28
f 52/146/26 34/108/29 54/106/30 126/16/27
f 126/16/27 54/106/30 27/105/5 121/15/2
f 53/14/28 126/16/27 121/15/2 1/17/1
f 2/18/31 55/19/32 127/22/33 56/44/34
f 55/19/32 39/20/35 57/170/36 127/22/33
f 127/22/33 57/170/36 40/21/37 58/23/38
f 56/44/34 127/22/33 58/23/38 4/46/39
f 33/24/25 53/25/28 128/29/40 59/139/41
f 53/25/28 1/1/1 122/26/4 128/29/40
f 128/29/40 122/26/4 3/27/9 45/28/11
f 59/139/41 128/29/40 45/28/11 32/30/15
f 9/177/42 60/180/43 129/34/44 61/51/45
f 60/180/43 6/31/46 62/32/47 129/34/44
f 129/34/44 62/32/47 8/33/48 63/168/49
f 61/51/45 129/34/44 63/168/49 10/52/50
f 11/35/51 64/57/52 130/40/53 65/36/54
f 64/57/52 38/37/55 66/165/56 130/40/53
f 130/40/53 66/165/56 39/38/35 55/39/32
f 65/36/54 130/40/53 55/39/32 2/41/31
f 12/63/57 67/61/58 131/45/59 68/47/60
f 67/61/58 11/42/51 65/43/54 131/45/59
f 131/45/59 65/43/54 2/18/31 56/44/34
f 68/47/60 131/45/59 56/44/34 4/46/39
f 41/67/61 69/65/62 132/49/63 70/178/64
f 69/65/62 12/63/57 68/47/60 132/49/63
f 132/49/63 68/47/60 4/46/39 58/48/38
f 70/178/64 132/49/63 58/48/38 40/50/37
f 13/182/65 71/185/66 133/53/67 72/68/68
f 71/185/66 9/177/42 61/51/45 133/53/67
f 133/53/67 61/51/45 10/52/50 73/163/69
f 72/68/68 133/53/67 73/163/69 14/69/70
f 15/54/71 74/74/72 134/58/73 75/55/74
f 74/74/72 37/56/75 76/161/76 134/58/73
f 134/58/73 76/161/76 38/37/55 64/57/52
f 75/55/74 134/58/73 64/57/52 11/35/51
f 16/80/77 77/78/78 135/62/79 78/64/80
f 77/78/78 15/59/71 75/60/74 135/62/79
f 135/62/79 75/60/74 11/42/51 67/61/58
f 78/64/80 135/62/79 67/61/58 12/63/57
f 42/81/81 79/83/82 136/66/83 80/183/84
f 79/83/82 16/80/77 78/64/80 136/66/83
f 136/66/83 78/64/80 12/63/57 69/65/62
f 80/183/84 136/66/83 69/65/62 41/67/61
f 17/187/85 81/192/86 137/70/87 82/85/88
f 81/192/86 13/182/65 72/68/68 137/70/87
f 137/70/87 72/68/68 14/69/70 83/159/89
f 82/85/88 137/70/87 83/159/89 18/86/90
f 19/71/91 84/91/92 138/75/93 85/72/94
f 84/91/92 36/73/95 86/157/96 138/75/93
f 138/75/93 86/157/96 37/56/75 74/74/72
f 85/72/94 138/75/93 74/74/72 15/54/71
f 20/97/97 87/95/98 139/79/99 88/82/100
f 87/95/98 19/76/91 85/77/94 139/79/99
f 139/79/99 85/77/94 15/59/71 77/78/78
f 88/82/100 139/79/99 77/78/78 16/80/77
f 42/81/81 89/190/101 140/84/102 79/83/82
f 89/190/101 29/189/103 90/99/104 140/84/102
f 140/84/102 90/99/104 20/97/97 88/82/100
f 79/83/82 140/84/102 88/82/100 16/80/77
f 21/122/105 91/124/106 141/87/107 92/101/108
f 91/124/106 17/187/85 82/85/88 141/87/107
f 141/87/107 82/85/88 18/86/90 93/155/109
f 92/101/108 141/87/107 93/155/109 22/102/110
f 23/88/111 94/109/112 142/92/113 95/89/114
f 94/109/112 35/90/115 96/153/116 142/92/113
f 142/92/113 96/153/116 36/73/95 84/91/92
f 95/89/114 142/92/113 84/91/92 19/71/91
f 24/116/117 97/114/118 143/96/119 98/98/120
f 97/114/118 23/93/111 95/94/114 143/96/119
f 143/96/119 95/94/114 19/76/91 87/95/98
f 98/98/120 143/96/119 87/95/98 20/97/97
f 30/121/121 99/119/122 144/100/123 100/123/124
f 99/119/122 24/116/117 98/98/120 144/100/123
f 144/100/123 98/98/120 20/97/97 90/99/104
f 100/123/124 144/100/123 90/99/104 29/189/103
f 25/126/20 101/129/125 145/104/126 50/103/21
f 101/129/125 21/122/105 92/101/108 145/104/126
f 145/104/126 92/101/108 22/102/110 102/151/127
f 50/103/21 145/104/126 102/151/127 26/145/22
f 27/105/5 54/106/30 146/110/128 103/107/129
f 54/106/30 34/108/29 104/149/130 146/110/128
f 146/110/128 104/149/130 35/90/115 94/109/112
f 103/107/129 146/110/128 94/109/112 23/88/111
f 28/6/7 43/111/6 147/115/131 105/118/132
f 43/111/6 27/112/5 103/113/129 147/115/131
f 147/115/131 103/113/129 23/93/111 97/114/118
f 105/118/132 147/115/131 97/114/118 24/116/117
f 31/7/13 46/117/12 148/120/133 106/127/134
f 46/117/12 28/6/7 105/118/132 148/120/133
f 148/120/133 105/118/132 24/116/117 99/119/122
f 106/127/134 148/120/133 99/119/122 30/121/121
f 21/122/105 107/128/135 149/125/136 91/124/106
f 107/128/135 30/121/121 100/123/124 149/125/136
f 149/125/136 100/123/124 29/189/103 108/188/137
f 91/124/106 149/125/136 108/188/137 17/187/85
f 25/126/20 109/133/138 150/130/139 101/129/125
f 109/133/138 31/7/13 106/127/134 150/130/139
f 150/130/139 106/127/134 30/121/121 107/128/135
f 101/129/125 150/130/139 107/128/135 21/122/105
f 32/9/15 47/131/14 151/135/140 110/132/141
f 47/131/14 31/7/13 109/133/138 151/135/140
f 151/135/140 109/133/138 25/126/20 48/134/17
f 110/132/141 151/135/140 48/134/17 5/136/16
f 7/137/24 111/138/142 152/142/143 49/141/19
f 111/138/142 33/24/25 59/139/41 152/142/143
f 152/142/143 59/139/41 32/30/15 110/140/141
f 49/141/19 152/142/143 110/140/141 5/143/16
f 7/12/24 51/144/23 153/148/144 111/147/142
f 51/144/23 26/145/22 112/150/145 153/148/144
f 153/148/144 112/150/145 34/108/29 52/146/26
f 111/147/142 153/148/144 52/146/26 33/13/25
f 35/90/115 104/149/130 154/152/146 113/154/147
f 104/149/130 34/108/29 112/150/145 154/152/146
f 154/152/146 112/150/145 26/145/22 102/151/127
f 113/154/147 154/152/146 102/151/127 22/102/110
f 36/73/95 96/153/116 155/156/148 114/158/149
f 96/153/116 35/90/115 113/154/147 155/156/148
f 155/156/148 113/154/147 22/102/110 93/155/109
f 114/158/149 155/156/148 93/155/109 18/86/90
f 37/56/75 86/157/96 156/160/150 115/162/151
f 86/157/96 36/73/95 114/158/149 156/160/150
f 156/160/150 114/158/149 18/86/90 83/159/89
f 115/162/151 156/160/150 83/159/89 14/69/70
f 38/37/55 76/161/76 157/164/152 116/167/153
f 76/161/76 37/56/75 115/162/151 157/164/152
f 157/164/152 115/162/151 14/69/70 73/163/69
f 116/167/153 157/164/152 73/163/69 10/52/50
f 39/38/35 66/165/56 158/169/154 117/166/155
f 66/165/56 38/37/55 116/167/153 158/169/154
f 158/169/154 116/167/153 10/52/50 63/168/49
f 117/166/155 158/169/154 63/168/49 8/33/48
f 40/21/37 57/170/36 159/175/156 118/171/157
f 57/170/36 39/20/35 117/172/155 159/175/156
f 159/175/156 117/172/155 8/173/48 62/174/47
f 118/171/157 159/175/156 62/174/47 6/176/46
f 9/177/42 119/184/158 160/181/159 60/180/43
f 119/184/158 41/67/61 70/178/64 160/181/159
f 160/181/159 70/178/64 40/50/37 118/179/157
f 60/180/43 160/181/159 118/179/157 6/31/46
f 13/182/65 120/191/160 161/186/161 71/185/66
f 120/191/160 42/81/81 80/183/84 161/186/161
f 161/186/161 80/183/84 41/67/61 119/184/158
f 71/185/66 161/186/161 119/184/158 9/177/42
f 17/187/85 108/188/137 162/193/162 81/192/86
f 108/188/137 29/189/103 89/190/101 162/193/162
f 162/193/162 89/190/101 42/81/81 120/191/160
f 81/192/86 162/193/162 120/191/160 13/182/65
