# This file uses centimeters as units for non-parametric coordinates.

mtllib rock039.mtl
g default
v 3780.023967 -4243.513316 3066.828845
v 4445.450251 -4153.685654 2750.976601
v 3778.549523 -3389.314504 3103.653579
v 4494.151489 -3446.863318 2774.652079
v 3535.138288 -3385.864597 2335.449136
v 4371.464653 -3324.260065 2015.987536
v 3561.175768 -4198.460085 2373.621634
v 4291.760293 -4208.558073 2153.095491
v 4465.181462 -3397.758092 2479.777684
v 3636.160562 -3339.169221 2727.695697
v 3651.603077 -4271.209748 2734.309368
v 4420.183850 -4251.936396 2462.882459
v 4081.272357 -3130.915487 2617.329365
v 4204.092943 -3360.051955 2976.430923
v 4177.469097 -4260.927080 2920.983064
v 4078.186182 -4388.225652 2595.488516
v 3937.370725 -4261.114428 2237.919553
v 3929.752085 -3339.536804 2173.583632
v 4570.326573 -3782.653623 2439.459266
v 4527.463564 -3792.379818 2790.631282
v 4218.780693 -3783.814483 2989.858162
v 3702.882885 -3778.639643 3185.684940
v 3583.873359 -3783.814483 2763.833708
v 3474.783571 -3803.468116 2306.509827
v 3934.071166 -3784.499837 2133.988548
v 4343.380611 -3819.610701 1998.557372
v 3989.283061 -3193.548461 2342.645227
v 4574.607509 -3233.464234 2203.345199
v 4482.683866 -3790.636302 2207.659763
v 4353.963214 -4247.262752 2287.527444
v 3997.911662 -4380.438115 2379.421361
v 3603.424896 -4231.882530 2526.590692
v 3405.080950 -3795.449583 2542.298901
v 3578.365397 -3362.415121 2513.140165
v 4171.230427 -3177.190371 2844.487129
v 4463.786480 -3438.773667 2654.050181
v 4550.331999 -3797.959710 2633.771755
v 4440.504912 -4203.887624 2639.240530
v 4142.752786 -4366.453861 2785.703085
v 3699.956787 -4301.111926 2938.464129
v 3651.423393 -3783.814483 2966.713184
v 3643.807920 -3279.306511 2975.571479
v 4351.150581 -3177.589743 2537.832251
v 4388.737982 -3264.040943 2746.185529
v 4394.960304 -3380.527814 2875.041363
v 4422.572932 -3783.814483 2922.004218
v 4347.679179 -4212.683762 2823.951008
v 4302.219714 -4286.976143 2696.349324
v 4252.134244 -4318.930453 2526.244555
v 4185.800213 -4304.710139 2343.805287
v 4139.696950 -4247.230351 2185.520313
v 4075.352803 -3827.345881 1815.750714
v 4142.253334 -3307.308808 2068.518878
v 4243.509439 -3208.806971 2285.318020
v 3833.126926 -3265.893750 2654.189509
v 3912.907961 -3181.156806 2896.536725
v 3979.054866 -3353.750977 3055.000189
v 3960.133733 -3783.432068 3108.862302
v 3953.647465 -4220.433868 2975.057715
v 3916.961138 -4323.267082 2848.978219
v 3842.572253 -4364.679806 2676.185262
v 3773.939574 -4338.184130 2472.819836
v 3702.005954 -4258.718278 2303.310704
v 3631.376906 -3784.560304 2158.910320
v 3722.633048 -3381.991642 2277.125998
v 3767.642413 -3293.839026 2435.283410
v 4570.175082 -3568.149131 2448.166036
v 4515.122840 -3602.988358 2636.126506
v 4502.748405 -3594.299621 2785.602653
v 4419.997269 -3540.377726 2919.631975
v 4219.924327 -3535.630859 3017.802433
v 3968.481953 -3541.735569 3118.476412
v 3766.030646 -3576.352935 3080.688147
v 3643.910574 -3558.687910 2953.294964
v 3550.986980 -3526.125455 2779.400247
v 3429.499526 -3543.215986 2535.893460
v 3474.181351 -3573.709831 2310.451477
v 3654.574771 -3538.668667 2191.497331
v 3899.498378 -3511.761392 2036.285842
v 4099.647255 -3505.454162 1861.607950
v 4340.279243 -3547.271176 2016.387417
v 4540.247416 -3548.679150 2209.738201
v 4521.349051 -4056.377042 2445.157700
v 4529.787171 -4026.272511 2631.140506
v 4518.206540 -4007.753026 2781.438527
v 4394.191299 -4030.149564 2887.609984
v 4215.494399 -4048.856939 2988.445826
v 3950.971779 -4050.456846 3079.026872
v 3696.903636 -4069.368992 3203.969820
v 3557.598665 -4075.639167 3002.619872
v 3531.308593 -4066.462428 2780.581291
v 3437.186853 -4047.624268 2543.631899
v 3470.561595 -4036.820307 2317.170787
v 3607.987176 -4070.532221 2143.419741
v 3931.533874 -4056.063466 2118.686945
v 4107.368244 -4091.935706 2011.234619
v 4304.724229 -4047.650917 2094.722930
v 4453.579471 -4053.037635 2245.286747
vt 0.375000 0.000000
vt 0.625000 0.000000
vt 0.375000 0.250000
vt 0.625000 0.250000
vt 0.375000 0.500000
vt 0.625000 0.500000
vt 0.375000 0.750000
vt 0.625000 0.750000
vt 0.375000 1.000000
vt 0.625000 1.000000
vt 0.875000 0.000000
vt 0.875000 0.250000
vt 0.125000 0.000000
vt 0.125000 0.250000
vt 0.625000 0.365748
vt 0.740747 0.250000
vt 0.259253 0.250000
vt 0.375000 0.365748
vt 0.259253 0.000000
vt 0.375000 0.884252
vt 0.625000 0.884252
vt 0.740747 0.000000
vt 0.507346 0.365748
vt 0.507346 0.250000
vt 0.507346 0.000000
vt 0.507346 1.000000
vt 0.507346 0.884252
vt 0.507346 0.750000
vt 0.507346 0.500000
vt 0.740747 0.140589
vt 0.625000 0.140589
vt 0.507346 0.140589
vt 0.375000 0.140589
vt 0.259253 0.140589
vt 0.125000 0.140589
vt 0.375000 0.609411
vt 0.507346 0.609411
vt 0.625000 0.609411
vt 0.875000 0.140589
vt 0.507346 0.434544
vt 0.625000 0.434544
vt 0.809544 0.250000
vt 0.809544 0.140589
vt 0.625000 0.815456
vt 0.809544 0.000000
vt 0.507346 0.815456
vt 0.190456 0.000000
vt 0.375000 0.815456
vt 0.190456 0.140589
vt 0.190456 0.250000
vt 0.375000 0.434544
vt 0.507346 0.306111
vt 0.625000 0.306111
vt 0.681111 0.250000
vt 0.681111 0.140589
vt 0.625000 0.943889
vt 0.681111 0.000000
vt 0.507346 0.943889
vt 0.318889 0.000000
vt 0.375000 0.943889
vt 0.318889 0.140589
vt 0.318889 0.250000
vt 0.375000 0.306111
vt 0.560881 0.365748
vt 0.560881 0.306111
vt 0.560881 0.250000
vt 0.560881 0.140589
vt 0.560881 0.000000
vt 0.560881 1.000000
vt 0.560881 0.943889
vt 0.560881 0.884252
vt 0.560881 0.815456
vt 0.560881 0.750000
vt 0.560881 0.609411
vt 0.560881 0.500000
vt 0.560881 0.434544
vt 0.436994 0.365748
vt 0.436994 0.306111
vt 0.436994 0.250000
vt 0.436994 0.140589
vt 0.436994 0.000000
vt 0.436994 1.000000
vt 0.436994 0.943889
vt 0.436994 0.884252
vt 0.436994 0.815456
vt 0.436994 0.750000
vt 0.436994 0.609411
vt 0.436994 0.500000
vt 0.436994 0.434544
vt 0.740747 0.197148
vt 0.681111 0.197148
vt 0.625000 0.197148
vt 0.560881 0.197148
vt 0.507346 0.197148
vt 0.436994 0.197148
vt 0.375000 0.197148
vt 0.318889 0.197148
vt 0.259253 0.197148
vt 0.190456 0.197148
vt 0.125000 0.197148
vt 0.375000 0.552852
vt 0.436994 0.552852
vt 0.507346 0.552852
vt 0.560881 0.552852
vt 0.625000 0.552852
vt 0.875000 0.197148
vt 0.809544 0.197148
vt 0.740747 0.079389
vt 0.681111 0.079389
vt 0.625000 0.079389
vt 0.560881 0.079389
vt 0.507346 0.079389
vt 0.436994 0.079389
vt 0.375000 0.079389
vt 0.318889 0.079389
vt 0.259253 0.079389
vt 0.190456 0.079389
vt 0.125000 0.079389
vt 0.375000 0.670611
vt 0.436994 0.670611
vt 0.507346 0.670611
vt 0.560881 0.670611
vt 0.625000 0.670611
vt 0.875000 0.079389
vt 0.809544 0.079389
vn 0.573243 -0.576325 0.582444
vn 0.751772 -0.541800 0.375889
vn 0.874596 -0.222986 0.430532
vn 0.557287 -0.226118 0.798938
vn 0.624300 0.727798 0.283831
vn 0.916224 0.389523 0.093839
vn 0.860190 0.475103 0.185338
vn 0.432179 0.899880 0.058622
vn -0.161746 -0.517945 -0.839983
vn 0.578617 -0.413726 -0.702875
vn 0.432173 -0.629868 -0.645362
vn -0.009780 -0.761072 -0.648594
vn 0.373559 -0.925430 -0.063507
vn 0.684173 -0.720071 -0.115780
vn 0.746293 -0.655897 0.113335
vn 0.488156 -0.855739 0.171508
vn 0.939749 -0.296576 -0.170044
vn 0.964054 -0.256389 0.069742
vn -0.639307 -0.762345 0.100579
vn -0.497635 -0.811645 0.305929
vn -0.929768 -0.139691 0.340615
vn -0.938719 -0.199282 0.281236
vn -0.136853 0.769921 -0.623293
vn 0.099436 0.968161 -0.229734
vn 0.738714 0.606900 -0.293212
vn 0.375568 0.510816 -0.773315
vn -0.682778 -0.690351 -0.239229
vn -0.672064 -0.739945 0.028504
vn -0.951558 -0.256709 0.169230
vn -0.873804 -0.251598 -0.416131
vn 0.578528 -0.727706 -0.368443
vn 0.229008 -0.925993 -0.300154
vn 0.840673 -0.301085 -0.450130
vn -0.156272 0.937743 0.310190
vn 0.182860 0.893588 0.409954
vn -0.084677 0.996253 -0.017624
vn -0.377770 0.923982 -0.059561
vn 0.241003 -0.617822 0.748474
vn 0.309123 -0.607204 0.731947
vn 0.381429 -0.215684 0.898884
vn 0.365980 -0.201816 0.908476
vn -0.234024 -0.969971 0.066255
vn 0.098498 -0.995116 0.006464
vn 0.194125 -0.929327 0.314113
vn -0.043734 -0.939254 0.340426
vn -0.326944 -0.755061 -0.568323
vn -0.164244 -0.730513 -0.662853
vn -0.020986 -0.958781 -0.283371
vn -0.327043 -0.932348 -0.154174
vn -0.374242 -0.252982 -0.892157
vn -0.382315 -0.325279 -0.864887
vn -0.405225 0.900037 -0.160393
vn -0.248775 0.931956 -0.263760
vn -0.398947 0.735774 -0.547246
vn -0.433869 0.711189 -0.553144
vn 0.993797 -0.012336 0.110523
vn 0.987861 -0.097001 -0.121332
vn 0.992970 0.093060 0.073142
vn 0.969104 0.198959 0.145781
vn 0.565448 -0.054028 0.823013
vn 0.912811 -0.003683 0.408365
vn 0.930965 0.134897 0.339274
vn 0.588567 0.101943 0.801995
vn 0.322804 -0.007205 0.946438
vn 0.386848 -0.069038 0.919556
vn 0.394285 0.076291 0.915816
vn 0.235116 0.098560 0.966957
vn -0.902498 0.059264 0.426597
vn -0.920065 0.164523 0.355546
vn -0.895947 0.062481 0.439744
vn -0.911541 0.168371 0.375159
vn -0.868867 0.029330 -0.494177
vn -0.979627 0.005015 0.200765
vn -0.953759 0.235523 0.186742
vn -0.833674 0.229599 -0.502267
vn -0.460124 0.197995 -0.865496
vn -0.611843 0.238987 -0.754012
vn -0.531475 -0.086861 -0.842609
vn -0.394973 0.014130 -0.918584
vn -0.180191 0.240099 -0.953878
vn 0.599656 0.065145 -0.797602
vn 0.639437 -0.169476 -0.749932
vn -0.185723 -0.196027 -0.962850
vn 0.919874 -0.032636 -0.390853
vn 0.863829 -0.146054 -0.482148
vn 0.611610 0.462896 0.641608
vn 0.917322 0.322968 0.232835
vn -0.033211 -0.703713 0.709707
vn -0.303178 -0.181363 0.935516
vn -0.358505 0.159647 0.919775
vn -0.425815 0.153864 0.891632
vn 0.154571 0.508074 0.847330
vn 0.358484 0.484275 0.798102
vn -0.620797 0.687346 0.377050
vn -0.670340 0.740497 0.048041
vn -0.272202 0.355640 0.894107
vn -0.628481 0.777499 0.022524
vn -0.620499 0.670350 -0.406955
s 1
g pCube136
usemtl initialShadingGroup
f 47/68/1 2/2/2 85/110/3 86/111/4
f 44/65/5 36/53/6 9/15/7 43/64/8
f 96/122/9 97/123/10 8/8/11 51/73/12
f 49/71/13 12/21/14 38/56/15 48/70/16
f 38/57/15 12/22/14 83/108/17 84/109/18
f 11/19/19 40/59/20 90/115/21 91/116/22
f 53/75/23 54/76/24 28/41/25 6/6/26
f 7/13/27 32/47/28 92/117/29 93/118/30
f 51/73/12 8/8/11 30/44/31 50/72/32
f 97/124/10 98/125/33 30/45/31 8/11/11
f 56/78/34 35/52/35 13/23/36 55/77/37
f 59/81/38 15/25/39 87/112/40 88/113/41
f 61/84/42 16/27/43 39/58/44 60/83/45
f 63/86/46 17/28/47 31/46/48 62/85/49
f 94/120/50 95/121/51 17/28/47 63/86/46
f 66/89/52 27/40/53 18/29/54 65/88/55
f 37/55/56 19/30/57 67/90/58 68/91/59
f 46/67/60 20/31/61 69/92/62 70/93/63
f 58/80/64 21/32/65 71/94/66 72/95/67
f 23/34/68 41/61/69 74/97/70 75/98/71
f 24/35/72 33/49/73 76/99/74 77/100/75
f 78/102/76 79/103/77 25/37/78 64/87/79
f 80/104/80 81/105/81 26/38/82 52/74/83
f 82/107/84 29/43/85 26/39/82 81/106/81
f 54/76/24 43/64/8 9/15/7 28/41/25
f 82/107/84 67/90/58 19/30/57 29/43/85
f 30/45/31 98/125/33 83/108/17 12/22/14
f 50/72/32 30/44/31 12/21/14 49/71/13
f 62/85/49 31/46/48 16/27/43 61/84/42
f 92/117/29 32/47/28 11/19/19 91/116/22
f 76/99/74 33/49/73 23/34/68 75/98/71
f 66/89/52 55/77/37 13/23/36 27/40/53
f 45/66/86 4/4/87 36/53/6 44/65/5
f 20/31/61 37/55/56 68/91/59 69/92/62
f 2/2/2 38/57/15 84/109/18 85/110/3
f 48/70/16 38/56/15 2/10/2 47/69/1
f 60/83/45 39/58/44 15/26/39 59/82/38
f 90/115/21 40/59/20 1/1/88 89/114/89
f 74/97/70 41/61/69 22/33/90 73/96/91
f 57/79/92 14/24/93 35/52/35 56/78/34
f 35/52/35 44/65/5 43/64/8 13/23/36
f 14/24/93 45/66/86 44/65/5 35/52/35
f 21/32/65 46/67/60 70/93/63 71/94/66
f 15/25/39 47/68/1 86/111/4 87/112/40
f 39/58/44 48/70/16 47/69/1 15/26/39
f 16/27/43 49/71/13 48/70/16 39/58/44
f 31/46/48 50/72/32 49/71/13 16/27/43
f 17/28/47 51/73/12 50/72/32 31/46/48
f 95/121/51 96/122/9 51/73/12 17/28/47
f 79/103/77 80/104/80 52/74/83 25/37/78
f 18/29/54 27/40/53 54/76/24 53/75/23
f 27/40/53 13/23/36 43/64/8 54/76/24
f 42/63/94 56/78/34 55/77/37 10/18/95
f 3/3/96 57/79/92 56/78/34 42/63/94
f 22/33/90 58/80/64 72/95/67 73/96/91
f 1/1/88 59/81/38 88/113/41 89/114/89
f 40/60/20 60/83/45 59/82/38 1/9/88
f 11/20/19 61/84/42 60/83/45 40/60/20
f 32/48/28 62/85/49 61/84/42 11/20/19
f 7/7/27 63/86/46 62/85/49 32/48/28
f 93/119/30 94/120/50 63/86/46 7/7/27
f 77/101/75 78/102/76 64/87/79 24/36/72
f 34/51/97 66/89/52 65/88/55 5/5/98
f 10/18/95 55/77/37 66/89/52 34/51/97
f 68/91/59 67/90/58 9/16/7 36/54/6
f 69/92/62 68/91/59 36/54/6 4/4/87
f 70/93/63 69/92/62 4/4/87 45/66/86
f 71/94/66 70/93/63 45/66/86 14/24/93
f 72/95/67 71/94/66 14/24/93 57/79/92
f 73/96/91 72/95/67 57/79/92 3/3/96
f 42/62/94 74/97/70 73/96/91 3/3/96
f 75/98/71 74/97/70 42/62/94 10/17/95
f 34/50/97 76/99/74 75/98/71 10/17/95
f 77/100/75 76/99/74 34/50/97 5/14/98
f 5/5/98 65/88/55 78/102/76 77/101/75
f 65/88/55 18/29/54 79/103/77 78/102/76
f 18/29/54 53/75/23 80/104/80 79/103/77
f 53/75/23 6/6/26 81/105/81 80/104/80
f 28/42/25 82/107/84 81/106/81 6/12/26
f 9/16/7 67/90/58 82/107/84 28/42/25
f 84/109/18 83/108/17 19/30/57 37/55/56
f 85/110/3 84/109/18 37/55/56 20/31/61
f 86/111/4 85/110/3 20/31/61 46/67/60
f 87/112/40 86/111/4 46/67/60 21/32/65
f 88/113/41 87/112/40 21/32/65 58/80/64
f 89/114/89 88/113/41 58/80/64 22/33/90
f 41/61/69 90/115/21 89/114/89 22/33/90
f 91/116/22 90/115/21 41/61/69 23/34/68
f 33/49/73 92/117/29 91/116/22 23/34/68
f 93/118/30 92/117/29 33/49/73 24/35/72
f 24/36/72 64/87/79 94/120/50 93/119/30
f 64/87/79 25/37/78 95/121/51 94/120/50
f 25/37/78 52/74/83 96/122/9 95/121/51
f 52/74/83 26/38/82 97/123/10 96/122/9
f 26/39/82 29/43/85 98/125/33 97/124/10
f 83/108/17 98/125/33 29/43/85 19/30/57
