# This file uses centimeters as units for non-parametric coordinates.
# UVs by headus UVLayout v2.08.03 2014/05/30 12:06:08

mtllib env_level1_Canyon_Rock34.mtl
g default
v 7965.499311 -4243.368765 12490.942826
v 7797.564517 -4223.886535 13103.289842
v 7996.783794 -3279.702353 12575.767943
v 7856.858201 -3266.822165 13069.363623
v 8455.783443 -3214.627471 12691.193295
v 8283.237876 -3267.223701 13211.819525
v 8470.512356 -4223.809975 12686.758117
v 8306.772244 -4272.280596 13327.326452
v 8322.880785 -3690.034088 13355.997341
v 8436.706085 -3705.697418 12700.870972
v 7950.714169 -3688.052223 12443.291921
v 7775.340367 -3725.145660 13118.451098
v 8462.752157 -3647.172313 12962.093811
v 8409.013801 -3128.274587 12985.339392
v 7888.484721 -3173.966707 12803.043980
v 7795.705149 -3712.132689 12769.899551
v 7821.368285 -4347.814434 12798.082216
v 8431.805447 -4318.559588 13012.937614
v 8127.711822 -2965.039986 12913.159164
v 8066.263292 -3203.068046 13181.492088
v 8011.214678 -3694.742688 13316.674520
v 8020.628720 -4301.335929 13240.433971
v 8116.854517 -4480.038902 12921.734405
v 8231.518604 -4279.744811 12563.392807
v 8160.917217 -3688.377324 12559.285754
v 8216.288173 -3217.422891 12624.247303
v 7947.361004 -3219.048042 12662.307518
v 8178.156594 -3065.417407 12746.115367
v 8440.828528 -3167.209768 12813.777561
v 8457.572669 -3658.638887 12808.130986
v 8464.143467 -4263.383751 12814.067119
v 8196.630167 -4480.089195 12677.564584
v 7872.244714 -4384.599820 12571.872067
v 7844.883095 -3680.110572 12558.103278
v 7850.778828 -3193.844911 12962.960821
v 8089.938111 -3028.097567 13078.597279
v 8342.756886 -3184.327007 13128.858668
v 8422.467568 -3670.335525 13224.905387
v 8387.462303 -4366.161817 13221.260743
v 8054.824405 -4475.860449 13115.738439
v 7799.935299 -4287.639573 12984.693358
v 7759.378129 -3723.733040 12961.910047
v 7810.815248 -3434.848011 12948.729910
v 7828.429908 -3395.641915 12774.191440
v 7890.375324 -3410.799467 12613.772986
v 7973.836928 -3435.635131 12509.867946
v 8246.472968 -3419.433913 12534.592001
v 8495.813526 -3408.672926 12669.897715
v 8507.105607 -3378.493870 12818.761474
v 8463.665429 -3361.524266 13008.039871
v 8391.335281 -3390.287399 13167.877477
v 8302.043216 -3428.355924 13275.528907
v 8041.226248 -3420.681515 13257.964046
v 7821.366836 -3448.469275 13090.486142
v 7769.542691 -4031.674010 12964.560353
v 7793.207473 -4046.103794 12775.562230
v 7834.201967 -4052.046342 12556.601507
v 7948.206688 -4009.312518 12436.512749
v 8253.727303 -4014.721751 12497.037786
v 8503.962430 -4020.012106 12668.919987
v 8531.890815 -4016.985555 12823.022268
v 8495.843590 -4045.861559 13047.797344
v 8429.451723 -4042.482973 13237.254164
v 8316.746895 -4023.969144 13347.896034
v 8007.933754 -4028.598306 13298.744226
v 7777.508289 -4020.927084 13115.741215
v 7937.755066 -3216.729599 13130.846571
v 7945.528648 -3070.479511 13018.822934
v 7987.737148 -3037.189946 12852.077526
v 8044.856682 -3113.513531 12701.923985
v 8086.010116 -3241.836701 12591.118634
v 8096.794465 -3435.300769 12504.977853
v 8095.028168 -3694.634313 12438.492122
v 8094.270313 -4010.040827 12449.735209
v 8078.338644 -4270.140690 12516.329322
v 8013.750528 -4462.128632 12625.782210
v 7930.752782 -4480.089118 12862.110592
v 7879.411519 -4456.723745 13047.509175
v 7880.709905 -4274.726744 13166.014109
v 7869.842700 -4020.678359 13215.649274
v 7856.525856 -3705.968842 13236.414382
v 7903.712216 -3424.480333 13193.323300
v 8194.414829 -3231.177035 13205.612403
v 8236.812210 -3083.082042 13104.684750
v 8301.240540 -2983.214856 12959.892662
v 8323.514725 -3083.372253 12784.921913
v 8351.795772 -3214.888595 12662.899157
v 8399.870332 -3402.809372 12581.656486
v 8317.516980 -3705.229664 12636.991241
v 8396.268502 -4015.217655 12573.987405
v 8373.853313 -4258.619854 12631.029322
v 8366.198723 -4424.130641 12756.261990
v 8303.874543 -4447.835785 12968.513291
v 8243.790460 -4447.156398 13173.084020
v 8182.288606 -4284.680099 13289.575680
v 8170.169945 -4019.557862 13346.030876
v 8182.625571 -3683.693516 13381.512525
v 8181.963716 -3430.236541 13288.044873
v 8257.466357 -3553.905614 12502.110696
v 8412.464906 -3554.019518 12564.495704
v 8509.133697 -3557.185177 12663.458968
v 8538.514920 -3518.566378 12812.055089
v 8479.733745 -3504.348294 13027.203103
v 8495.822826 -3846.516941 13047.081839
v 8550.907524 -3837.812221 12814.185486
v 8513.208126 -3862.854767 12662.970096
v 8410.664001 -3860.223659 12560.661153
v 8261.093528 -3851.549533 12483.333578
# 129 texture coords
vt 0.922775 0.477189
vt 0.890969 0.045653
vt 0.666052 0.467266
vt 0.642126 0.091901
vt 0.658442 0.347956
vt 0.661930 0.210128
vt 0.914192 0.340944
vt 0.910901 0.179296
vt 0.770713 0.187717
vt 0.782207 0.352190
vt 0.778276 0.489666
vt 0.759312 0.050824
vt 0.765169 0.283937
vt 0.633037 0.278553
vt 0.464735 0.294059
vt 0.320632 0.302946
vt 0.154723 0.306355
vt 0.937214 0.257579
vt 0.552552 0.279742
vt 0.636464 0.159661
vt 0.762809 0.122281
vt 0.918402 0.111577
vt 0.059590 0.292445
vt 0.933129 0.404412
vt 0.778067 0.426948
vt 0.648452 0.405141
vt 0.641936 0.322646
vt 0.770180 0.322460
vt 0.926353 0.310544
vt 0.642312 0.236430
vt 0.767665 0.221009
vt 0.937303 0.204482
vt 0.404000 0.300388
vt 0.709730 0.480380
vt 0.705668 0.415519
vt 0.705815 0.350839
vt 0.697423 0.318036
vt 0.691732 0.273332
vt 0.696689 0.232521
vt 0.704631 0.200452
vt 0.693351 0.141411
vt 0.687457 0.072032
vt 0.233421 0.305564
vt 0.861590 0.488133
vt 0.864404 0.415508
vt 0.864250 0.345915
vt 0.861931 0.311050
vt 0.865240 0.258705
vt 0.859213 0.214424
vt 0.851508 0.180712
vt 0.847229 0.111914
vt 0.837239 0.043057
vt 0.635383 0.121829
vt 0.510304 0.286393
vt 0.655724 0.442171
vt 0.710421 0.451284
vt 0.780791 0.455983
vt 0.862211 0.454060
vt 0.930607 0.446649
vt 0.109205 0.296356
vt 0.907188 0.071336
vt 0.840765 0.075094
vt 0.760121 0.083676
vt 0.689116 0.105149
vt 0.647499 0.192085
vt 0.593197 0.279357
vt 0.650165 0.369176
vt 0.702965 0.378731
vt 0.782378 0.386689
vt 0.864774 0.378244
vt 0.926524 0.364679
vt 0.917457 0.152286
vt 0.848590 0.149471
vt 0.766010 0.160860
vt 0.700492 0.173739
vt 0.741812 0.419340
vt 0.738407 0.379862
vt 0.740761 0.351459
vt 0.731807 0.319797
vt 0.728470 0.268862
vt 0.814714 0.261233
vt 0.818215 0.315956
vt 0.826574 0.348466
vt 0.827761 0.379165
vt 0.822821 0.418413
vt 0.113275 0.248062
vt 0.165063 0.257730
vt 0.064099 0.241031
vt 0.234022 0.257184
vt 0.148309 0.365120
vt 0.104283 0.359075
vt 0.010000 0.291619
vt 0.013231 0.237650
vt 0.054562 0.357268
vt 0.315416 0.253679
vt 0.234990 0.361986
vt 0.005780 0.347773
vt 0.393303 0.256124
vt 0.331203 0.357512
vt 0.459083 0.252350
vt 0.403608 0.344052
vt 0.504745 0.242243
vt 0.459774 0.334152
vt 0.551508 0.232916
vt 0.504418 0.331124
vt 0.603186 0.223505
vt 0.551462 0.331779
vt 0.604614 0.339871
vt 0.585577 0.170679
vt 0.589090 0.120167
vt 0.598040 0.397866
vt 0.613241 0.078046
vt 0.611559 0.445074
vt 0.671013 0.040703
vt 0.640261 0.480206
vt 0.750671 0.013666
vt 0.969755 0.178741
vt 0.984314 0.256433
vt 0.692990 0.508898
vt 0.838865 0.005780
vt 0.973273 0.109637
vt 0.972885 0.332684
vt 0.771761 0.527175
vt 0.911410 0.019817
vt 0.958577 0.052819
vt 0.876703 0.526566
vt 0.991313 0.394834
vt 0.964862 0.497420
vt 0.988299 0.452940
vn -0.979385 0.066058 -0.190895
vn -0.997121 0.063287 -0.041760
vn -0.984563 0.171683 -0.034065
vn -0.953053 0.197903 -0.229182
vn -0.075037 0.993510 -0.085481
vn -0.197449 0.773572 0.602163
vn 0.230524 0.690484 0.685631
vn 0.453054 0.884912 0.108043
vn 0.987707 0.047940 0.148787
vn 0.959809 0.072773 0.271056
vn 0.861079 0.093596 0.499782
vn 0.969700 0.057399 0.237459
vn 0.448226 -0.892505 0.050286
vn 0.184383 -0.886919 0.423529
vn -0.135656 -0.881417 0.452439
vn 0.070296 -0.997380 0.017044
vn -0.386640 0.075839 0.919107
vn -0.114149 0.091742 0.989219
vn -0.081954 0.329059 0.940746
vn -0.325495 0.292742 0.899086
vn 0.499276 0.043449 -0.865353
vn 0.600963 0.049246 -0.797758
vn 0.344243 -0.069191 -0.936327
vn 0.492680 -0.231084 -0.838967
vn 0.890812 -0.433002 0.137705
vn 0.965633 -0.125987 0.227334
vn 0.875511 -0.072208 0.477773
vn 0.770424 -0.460144 0.441265
vn 0.548113 -0.383487 -0.743310
vn 0.349472 -0.389541 -0.852131
vn 0.348507 -0.174849 -0.920854
vn 0.534373 -0.178563 -0.826172
vn -0.923254 -0.357545 -0.140581
vn -0.958627 -0.283878 0.021150
vn -0.996934 -0.057903 -0.052632
vn -0.984327 -0.052422 -0.168380
vn -0.342097 -0.388328 0.855670
vn -0.169184 -0.396121 0.902477
vn -0.175765 -0.117885 0.977348
vn -0.391129 -0.127555 0.911454
vn 0.865018 -0.223546 -0.449190
vn 0.992319 -0.105343 0.064848
vn 0.999741 0.022144 0.005256
vn 0.826064 0.053340 -0.561047
vn 0.168325 0.537458 -0.826320
vn 0.085650 0.786746 -0.611305
vn 0.411847 0.783695 -0.464978
vn 0.323773 0.549009 -0.770559
vn -0.423209 0.113665 -0.898874
vn -0.893035 0.096582 -0.439501
vn -0.859455 0.244063 -0.449188
vn -0.413930 0.310372 -0.855764
vn -0.237849 -0.299558 -0.923955
vn -0.785348 -0.415408 -0.458983
vn -0.905747 -0.054362 -0.420317
vn -0.387047 -0.072353 -0.919217
vn 0.567463 -0.790024 -0.232052
vn 0.229664 -0.880059 -0.415633
vn 0.872350 -0.168817 -0.458810
vn 0.986315 -0.158878 0.044046
vn 0.915816 -0.401454 -0.010760
vn 0.838249 -0.324713 -0.438064
vn -0.850799 0.443581 -0.281739
vn -0.924043 0.381201 0.028819
vn -0.625697 0.707962 0.327557
vn -0.519264 0.816054 -0.253813
vn -0.934043 0.072201 0.349787
vn -0.633744 0.072925 0.770098
vn -0.589597 0.256245 0.765973
vn -0.917361 0.206222 0.340471
vn -0.896067 -0.215668 0.388009
vn -0.581869 -0.342050 0.737855
vn -0.605735 -0.105561 0.788633
vn -0.927402 -0.070960 0.367273
vn -0.404009 -0.913441 -0.049005
vn -0.561413 -0.768714 0.306422
vn 0.180760 -0.384534 -0.905240
vn -0.134793 -0.874855 -0.465252
vn 0.167625 -0.131565 -0.977032
vn 0.071127 0.315697 -0.946190
vn 0.160994 0.092907 -0.982573
vn -0.367924 0.469963 -0.802350
vn -0.685281 0.482751 -0.545291
vn -0.250235 0.730005 -0.635984
vn 0.012840 0.524846 -0.851100
vn -0.868802 0.298653 0.394956
vn -0.544350 0.416188 0.728334
vn -0.239896 0.447039 0.861746
vn 0.017039 0.452349 0.891678
vn 0.807489 0.238222 0.539641
vn 0.473825 0.308858 0.824680
vn 0.478221 0.097198 0.872844
vn 0.433218 -0.074347 0.898218
vn 0.299722 -0.298216 0.906220
vn 0.417504 0.288846 -0.861544
vn 0.209522 0.328342 -0.921028
vn 0.761208 0.455260 -0.461845
vn 0.876068 0.477214 -0.069074
vn 0.971928 0.223471 0.073597
vn 0.859073 0.232424 -0.456041
vn 0.920844 0.227387 0.316768
vn 0.845937 0.462288 0.265856
vn 0.669222 0.424446 0.609908
vn 0.373852 0.409557 0.832164
vn 0.544714 0.256566 -0.798411
vn 0.417870 0.152719 -0.895579
vn 0.987211 0.159384 -0.003422
vn 0.837868 0.195662 -0.509601
s 1
g pCube6
usemtl rockplatform_aSG
f 16/16/1 42/95/2 43/98/3 44/33/4
f 19/19/5 36/104/6 84/106/7 85/66/8
f 13/13/9 103/80/10 38/31/11 104/81/12
f 93/92/13 94/93/14 40/88/15 23/23/16
f 21/21/17 97/74/18 98/75/19 53/41/20
f 89/69/21 25/25/22 99/76/23 100/77/24
f 18/18/25 62/48/26 63/49/27 39/32/28
f 91/71/29 24/24/30 59/45/31 90/70/32
f 17/17/33 41/87/34 55/89/35 56/43/36
f 22/22/37 95/72/38 96/73/39 65/51/40
f 101/78/41 102/79/42 30/28/43 10/10/44
f 26/26/45 28/111/46 86/108/47 87/67/48
f 11/11/49 34/123/50 45/119/51 46/34/52
f 1/1/53 33/128/54 57/126/55 58/44/56
f 91/71/29 92/122/57 32/127/58 24/24/30
f 60/46/59 61/47/60 31/29/61 7/7/62
f 15/15/63 35/100/64 68/102/65 69/54/66
f 12/12/67 81/63/68 82/64/69 54/42/70
f 2/2/71 79/61/72 80/62/73 66/52/74
f 77/60/75 78/86/76 41/87/34 17/17/33
f 75/59/77 76/129/78 33/128/54 1/1/53
f 74/58/79 75/59/77 1/1/53 58/44/56
f 72/56/80 73/57/81 11/11/49 46/34/52
f 3/3/82 27/115/83 70/113/84 71/55/85
f 27/103/83 15/15/63 69/54/66 70/105/84
f 86/108/47 28/107/46 19/19/5 85/66/8
f 30/28/43 102/79/42 103/80/10 13/13/9
f 31/29/61 61/47/60 62/48/26 18/18/25
f 32/94/58 92/97/57 93/92/13 23/23/16
f 33/90/54 76/91/78 77/60/75 17/17/33
f 57/96/55 33/90/54 17/17/33 56/43/36
f 45/101/51 34/99/50 16/16/1 44/33/4
f 35/112/64 4/4/86 67/53/87 68/110/65
f 84/106/7 36/109/6 20/20/88 83/65/89
f 38/31/11 51/39/90 52/40/91 9/9/92
f 39/32/28 63/49/27 64/50/93 8/8/94
f 40/121/15 94/117/14 95/72/38 22/22/37
f 41/124/34 78/125/76 79/61/72 2/2/71
f 66/52/74 55/120/35 41/124/34 2/2/71
f 54/42/70 43/114/3 42/116/2 12/12/67
f 44/33/4 43/98/3 35/100/64 15/15/63
f 27/103/83 45/101/51 44/33/4 15/15/63
f 46/34/52 45/119/51 27/115/83 3/3/82
f 71/55/85 72/56/80 46/34/52 3/3/82
f 88/68/95 47/35/96 26/26/45 87/67/48
f 5/5/97 29/27/98 49/37/99 48/36/100
f 50/38/101 49/37/99 29/27/98 14/14/102
f 14/14/102 37/30/103 51/39/90 50/38/101
f 52/40/91 51/39/90 37/30/103 6/6/104
f 53/41/20 98/75/19 83/65/89 20/20/88
f 54/42/70 82/64/69 67/53/87 4/4/86
f 35/112/64 43/114/3 54/42/70 4/4/86
f 56/43/36 55/89/35 42/95/2 16/16/1
f 34/99/50 57/96/55 56/43/36 16/16/1
f 58/44/56 57/126/55 34/123/50 11/11/49
f 73/57/81 74/58/79 58/44/56 11/11/49
f 107/84/105 108/85/106 25/25/22 89/69/21
f 10/10/44 30/28/43 105/82/107 106/83/108
f 104/81/12 105/82/107 30/28/43 13/13/9
f 64/50/93 63/49/27 38/31/11 9/9/92
f 65/51/40 96/73/39 97/74/18 21/21/17
f 66/52/74 80/62/73 81/63/68 12/12/67
f 42/116/2 55/120/35 66/52/74 12/12/67
f 68/110/65 67/53/87 20/20/88 36/109/6
f 69/54/66 68/102/65 36/104/6 19/19/5
f 70/105/84 69/54/66 19/19/5 28/107/46
f 71/55/85 70/113/84 28/111/46 26/26/45
f 26/26/45 47/35/96 72/56/80 71/55/85
f 73/57/81 99/76/23 25/25/22 108/85/106
f 59/45/31 24/24/30 75/59/77 74/58/79
f 24/24/30 32/127/58 76/129/78 75/59/77
f 77/60/75 76/91/78 32/94/58 23/23/16
f 23/23/16 40/88/15 78/86/76 77/60/75
f 79/61/72 78/125/76 40/121/15 22/22/37
f 80/62/73 79/61/72 22/22/37 65/51/40
f 81/63/68 80/62/73 65/51/40 21/21/17
f 82/64/69 81/63/68 21/21/17 53/41/20
f 67/53/87 82/64/69 53/41/20 20/20/88
f 37/30/103 84/106/7 83/65/89 6/6/104
f 85/66/8 84/106/7 37/30/103 14/14/102
f 29/27/98 86/108/47 85/66/8 14/14/102
f 87/67/48 86/108/47 29/27/98 5/5/97
f 48/36/100 88/68/95 87/67/48 5/5/97
f 10/10/44 89/69/21 100/77/24 101/78/41
f 106/83/108 107/84/105 89/69/21 10/10/44
f 7/7/62 91/71/29 90/70/32 60/46/59
f 7/7/62 31/29/61 92/122/57 91/71/29
f 93/118/13 92/122/57 31/29/61 18/18/25
f 18/18/25 39/32/28 94/117/14 93/118/13
f 95/72/38 94/117/14 39/32/28 8/8/94
f 96/73/39 95/72/38 8/8/94 64/50/93
f 97/74/18 96/73/39 64/50/93 9/9/92
f 98/75/19 97/74/18 9/9/92 52/40/91
f 83/65/89 98/75/19 52/40/91 6/6/104
f 47/35/96 99/76/23 73/57/81 72/56/80
f 100/77/24 99/76/23 47/35/96 88/68/95
f 101/78/41 100/77/24 88/68/95 48/36/100
f 48/36/100 49/37/99 102/79/42 101/78/41
f 103/80/10 102/79/42 49/37/99 50/38/101
f 50/38/101 51/39/90 38/31/11 103/80/10
f 63/49/27 62/48/26 104/81/12 38/31/11
f 62/48/26 61/47/60 105/82/107 104/81/12
f 106/83/108 105/82/107 61/47/60 60/46/59
f 60/46/59 90/70/32 107/84/105 106/83/108
f 90/70/32 59/45/31 108/85/106 107/84/105
f 73/57/81 108/85/106 59/45/31 74/58/79
